<?xml version="1.0" standalone="no"?>
<!DOCTYPE svg PUBLIC "-//W3C//DTD SVG 20010904//EN"
 "http://www.w3.org/TR/2001/REC-SVG-20010904/DTD/svg10.dtd">
<svg version="1.0" xmlns="http://www.w3.org/2000/svg"
 width="1024.000000pt" height="1024.000000pt" viewBox="0 0 1024.000000 1024.000000"
 preserveAspectRatio="xMidYMid meet">
<metadata>
Created by potrace 1.11, written by Peter Selinger 2001-2013
</metadata>
<g transform="translate(0.000000,1024.000000) scale(0.100000,-0.100000)"
fill="#000000" stroke="none">
<path d="M4098 9952 c-41 -3 -53 -21 -15 -23 74 -3 190 -18 272 -35 39 -9 79
-17 90 -20 47 -9 187 -59 275 -97 265 -115 502 -281 739 -516 194 -193 325
-355 482 -596 58 -90 80 -126 141 -230 40 -69 207 -407 243 -490 129 -303 248
-654 319 -945 45 -182 89 -388 110 -511 3 -19 7 -43 10 -54 4 -22 15 -94 21
-135 2 -14 6 -43 10 -65 6 -43 12 -85 20 -155 3 -25 7 -61 9 -80 3 -19 7 -64
11 -100 3 -36 7 -85 10 -110 16 -171 19 -292 20 -655 0 -366 -5 -528 -21 -690
-10 -107 -24 -243 -29 -280 -15 -117 -39 -280 -58 -393 l-23 -134 79 -94 c92
-112 248 -271 367 -376 115 -101 260 -218 269 -218 4 0 70 66 147 146 227 238
264 278 405 444 100 118 192 232 304 375 88 113 266 369 367 530 39 62 52 224
53 665 0 314 -9 532 -30 700 -6 47 -10 86 -20 180 -3 30 -7 62 -10 70 -2 8 -6
38 -10 65 -3 28 -8 64 -11 80 -3 17 -7 41 -9 55 -115 701 -377 1435 -705 1980
-124 207 -301 460 -413 590 -341 398 -697 683 -1090 870 -166 80 -392 161
-511 184 -11 3 -49 11 -84 19 -34 9 -66 16 -70 16 -10 1 -93 12 -122 17 -83
13 -265 17 -850 18 -360 0 -672 0 -692 -2z"/>
<path d="M188 6117 c-7 -17 -1 -1437 5 -1467 3 -14 8 -47 12 -75 25 -215 108
-466 230 -703 359 -691 1078 -1276 2051 -1670 150 -61 483 -176 599 -208 164
-44 328 -86 395 -100 41 -9 84 -18 95 -20 11 -2 34 -7 50 -10 17 -3 48 -9 70
-14 48 -11 261 -47 325 -55 25 -3 77 -10 115 -15 114 -16 207 -26 325 -35 47
-4 105 -8 130 -10 275 -21 917 -21 1051 0 13 2 62 6 109 10 72 5 97 12 165 47
268 136 605 358 905 597 52 41 97 78 100 81 3 3 32 28 65 55 83 69 111 93 168
145 27 25 68 62 90 82 48 43 59 25 -87 148 -236 196 -415 379 -553 566 l-75
101 -47 -8 c-54 -8 -113 -16 -196 -25 -33 -3 -68 -8 -77 -9 -9 -2 -48 -7 -85
-10 -37 -4 -78 -8 -90 -10 -12 -2 -57 -6 -100 -10 -43 -4 -89 -8 -103 -11 -14
-2 -70 -6 -125 -10 -55 -3 -111 -8 -125 -10 -138 -22 -894 -21 -1065 1 -16 2
-72 7 -123 10 -51 4 -101 8 -110 9 -9 2 -53 7 -97 11 -79 7 -109 10 -182 20
-21 3 -58 8 -83 11 -88 10 -351 54 -477 79 -117 23 -163 34 -363 81 -174 42
-497 139 -645 194 -179 66 -223 83 -250 95 -16 7 -59 25 -95 40 -36 15 -85 37
-110 47 -77 34 -332 164 -388 197 -29 17 -55 31 -58 31 -3 0 -32 18 -65 40
-33 22 -62 40 -64 40 -9 0 -291 194 -305 210 -3 3 -41 35 -85 70 -122 99 -346
325 -420 425 -17 22 -32 42 -35 45 -5 5 -75 111 -122 186 -78 124 -184 399
-204 529 -1 11 -7 52 -13 90 -6 39 -11 98 -11 132 0 57 -12 90 -22 60z"/>
<path d="M10037 6054 c-3 -6 -8 -39 -11 -75 -3 -35 -8 -74 -10 -85 -2 -12 -7
-37 -10 -55 -3 -19 -13 -61 -22 -94 -8 -33 -17 -67 -19 -75 -2 -8 -15 -46 -29
-83 -66 -177 -173 -367 -302 -534 -87 -113 -302 -328 -424 -425 -92 -73 -124
-96 -257 -187 -40 -27 -71 -58 -89 -89 -58 -99 -182 -283 -295 -438 -128 -175
-213 -285 -319 -414 -70 -85 -80 -97 -201 -235 -109 -124 -169 -190 -341 -368
-43 -45 -78 -83 -78 -86 1 -7 38 -33 230 -161 188 -126 345 -220 366 -220 49
0 479 264 674 414 325 249 582 520 782 821 171 259 317 626 344 861 2 27 7 56
9 64 2 8 7 42 11 75 9 73 12 1358 3 1382 -3 9 -8 12 -12 7z"/>
<path d="M7405 2603 c-91 -86 -322 -286 -400 -346 -5 -4 -21 -17 -35 -29 -117
-99 -678 -488 -704 -488 -4 0 -24 -11 -46 -25 -22 -14 -93 -53 -157 -86 -103
-53 -139 -79 -171 -124 -4 -6 -22 -33 -41 -60 -44 -63 -188 -249 -238 -305
-159 -181 -383 -378 -573 -503 -104 -68 -352 -197 -381 -197 -8 0 -19 -4 -24
-9 -11 -10 -109 -41 -205 -66 -105 -27 -218 -45 -330 -51 -110 -7 -115 -8
-107 -21 6 -10 1463 -9 1557 1 602 62 1103 292 1594 729 335 298 688 762 906
1191 22 42 23 49 10 58 -8 5 -89 55 -180 111 -91 56 -217 137 -280 181 -63 43
-122 80 -130 82 -8 2 -38 -17 -65 -43z"/>
</g>
</svg>
